<svg xmlns="http://www.w3.org/2000/svg" viewBox="0 0 180 180" width="180" height="180">
  <defs>
    <radialGradient id="bg" cx="50%" cy="50%" r="50%">
      <stop offset="0%" stop-color="#FFD54F"/>
      <stop offset="100%" stop-color="#FF9800"/>
    </radialGradient>
    <radialGradient id="face" cx="50%" cy="45%" r="40%">
      <stop offset="0%" stop-color="#FFEE58"/>
      <stop offset="100%" stop-color="#FFB300"/>
    </radialGradient>
  </defs>
  <rect width="180" height="180" rx="36" fill="url(#bg)"/>
  <g transform="translate(90,90)">
    <g fill="#FFF3E0" opacity="0.7">
      <polygon points="0,-82 7,-56 -7,-56" transform="rotate(0)"/>
      <polygon points="0,-82 7,-56 -7,-56" transform="rotate(45)"/>
      <polygon points="0,-82 7,-56 -7,-56" transform="rotate(90)"/>
      <polygon points="0,-82 7,-56 -7,-56" transform="rotate(135)"/>
      <polygon points="0,-82 7,-56 -7,-56" transform="rotate(180)"/>
      <polygon points="0,-82 7,-56 -7,-56" transform="rotate(225)"/>
      <polygon points="0,-82 7,-56 -7,-56" transform="rotate(270)"/>
      <polygon points="0,-82 7,-56 -7,-56" transform="rotate(315)"/>
    </g>
    <g fill="#FFCC80" opacity="0.5">
      <ellipse cx="0" cy="-68" rx="5" ry="12" transform="rotate(22.5)"/>
      <ellipse cx="0" cy="-68" rx="5" ry="12" transform="rotate(67.5)"/>
      <ellipse cx="0" cy="-68" rx="5" ry="12" transform="rotate(112.5)"/>
      <ellipse cx="0" cy="-68" rx="5" ry="12" transform="rotate(157.5)"/>
      <ellipse cx="0" cy="-68" rx="5" ry="12" transform="rotate(202.5)"/>
      <ellipse cx="0" cy="-68" rx="5" ry="12" transform="rotate(247.5)"/>
      <ellipse cx="0" cy="-68" rx="5" ry="12" transform="rotate(292.5)"/>
      <ellipse cx="0" cy="-68" rx="5" ry="12" transform="rotate(337.5)"/>
    </g>
  </g>
  <circle cx="90" cy="90" r="46" fill="url(#face)" stroke="#F9A825" stroke-width="2"/>
  <circle cx="66" cy="101" r="9" fill="#FF8A65" opacity="0.35"/>
  <circle cx="114" cy="101" r="9" fill="#FF8A65" opacity="0.35"/>
  <ellipse cx="75" cy="84" rx="5" ry="6" fill="#5D4037"/>
  <ellipse cx="105" cy="84" rx="5" ry="6" fill="#5D4037"/>
  <circle cx="77" cy="81" r="2" fill="white" opacity="0.8"/>
  <circle cx="107" cy="81" r="2" fill="white" opacity="0.8"/>
  <path d="M79,100 Q90,113 101,100" fill="none" stroke="#5D4037" stroke-width="2.5" stroke-linecap="round"/>
  <text x="90" y="146" font-size="27" text-anchor="middle" fill="#5D4037" font-family="'Apple SD Gothic Neo','Malgun Gothic',sans-serif" font-weight="900" stroke="#5D4037" stroke-width="0.5">해빛스쿨</text>
</svg>
